<?xml version="1.0" standalone="no"?>
<!DOCTYPE svg PUBLIC "-//W3C//DTD SVG 20010904//EN"
 "http://www.w3.org/TR/2001/REC-SVG-20010904/DTD/svg10.dtd">
<svg version="1.0" xmlns="http://www.w3.org/2000/svg"
 width="260.000000pt" height="260.000000pt" viewBox="0 0 260.000000 260.000000"
 preserveAspectRatio="xMidYMid meet">
<metadata>
Created by potrace 1.11, written by Peter Selinger 2001-2013
</metadata>
<g transform="translate(0.000000,260.000000) scale(0.100000,-0.100000)"
fill="#000000" stroke="none">
<path d="M120 2596 c0 -2 7 -6 15 -10 8 -3 15 -1 15 4 0 6 -7 10 -15 10 -8 0
-15 -2 -15 -4z"/>
<path d="M300 2587 c0 -7 9 -18 20 -25 24 -14 28 2 6 24 -18 17 -26 18 -26 1z"/>
<path d="M380 2578 c0 -16 5 -28 10 -28 13 0 13 20 0 40 -8 12 -10 9 -10 -12z"/>
<path d="M541 2597 c2 -1 12 -9 22 -16 15 -12 17 -12 11 3 -3 9 -13 16 -22 16
-8 0 -13 -1 -11 -3z"/>
<path d="M585 2590 c3 -5 8 -10 11 -10 2 0 4 5 4 10 0 6 -5 10 -11 10 -5 0 -7
-4 -4 -10z"/>
<path d="M1550 2585 c7 -8 10 -21 7 -29 -4 -11 1 -13 25 -9 19 3 34 0 39 -9 6
-10 11 -10 20 -1 9 9 14 9 24 0 10 -9 8 -18 -8 -39 -15 -21 -18 -31 -10 -39 6
-6 9 -18 6 -25 -3 -8 -4 -14 -2 -14 2 0 19 -4 37 -10 28 -8 33 -7 28 6 -3 9
-1 12 4 9 13 -8 13 -35 0 -35 -19 0 -10 -39 10 -45 19 -6 24 -20 21 -57 -3
-21 10 -23 28 -5 11 10 11 8 0 -10 -7 -12 -17 -19 -21 -17 -4 3 -8 -2 -8 -11
0 -9 5 -13 10 -10 6 3 10 -1 10 -9 0 -8 -8 -17 -17 -20 -10 -3 -6 -4 8 -2 24
2 25 0 25 -44 l-1 -47 24 16 c24 15 25 15 17 -4 -5 -11 -10 -37 -11 -57 -2
-20 -6 -41 -10 -47 -3 -6 0 -11 7 -12 7 0 0 -5 -16 -10 -17 -4 -35 -5 -40 0
-16 11 -55 11 -62 -1 -10 -15 17 -28 36 -18 11 6 24 4 39 -6 12 -9 25 -13 28
-10 4 3 1 6 -6 6 -7 0 -10 4 -7 9 4 5 14 8 24 7 9 -2 20 2 24 8 5 8 8 7 8 -2
0 -7 -7 -15 -15 -18 -21 -8 -19 -24 3 -25 13 0 12 -2 -5 -9 -13 -5 -23 -17
-23 -25 0 -9 4 -14 9 -11 5 3 18 -13 30 -37 12 -23 21 -36 21 -29 0 9 11 12
33 10 19 -2 31 -8 29 -15 -1 -7 2 -13 8 -13 5 0 10 7 10 16 0 12 7 15 25 12
14 -3 25 -1 25 3 0 5 8 9 18 9 13 0 14 2 3 9 -9 6 -5 9 14 9 15 0 23 -3 19 -7
-15 -10 -15 -31 0 -31 7 0 20 -8 27 -17 13 -17 13 -17 -5 -3 -18 14 -18 13
-12 -8 6 -18 4 -25 -11 -28 -10 -3 -23 -15 -28 -26 -6 -11 -13 -19 -17 -17 -4
2 -14 -5 -22 -16 -13 -18 -13 -21 0 -31 26 -20 6 -44 -38 -44 -22 0 -46 -7
-54 -15 -9 -8 -13 -15 -10 -15 4 0 -6 -13 -21 -30 -14 -16 -36 -30 -47 -30
-12 0 -16 -4 -11 -8 6 -4 10 -13 11 -19 3 -37 5 -43 14 -43 6 0 10 7 10 15 0
8 5 15 10 15 6 0 10 -4 10 -9 0 -5 3 -17 7 -27 5 -13 3 -15 -8 -9 -8 4 6 -11
31 -33 25 -23 51 -42 58 -42 7 0 11 -4 8 -9 -3 -5 0 -14 8 -20 11 -9 19 -6 36
19 15 21 17 30 8 31 -13 1 89 28 107 28 6 1 3 -4 -5 -9 -8 -5 -11 -10 -6 -10
5 0 18 8 28 17 10 9 36 18 56 19 32 1 40 -3 55 -27 18 -32 52 -41 43 -11 -3 9
-1 24 4 32 8 12 10 12 10 1 0 -8 8 -19 17 -26 14 -11 19 -10 29 3 9 13 15 14
26 4 12 -9 19 -7 36 13 12 14 19 26 14 26 -4 1 18 7 48 13 30 7 59 9 65 4 16
-14 55 -9 55 7 0 8 5 15 10 15 7 0 10 187 10 540 l0 540 -493 0 c-475 0 -494
-1 -514 -19 -21 -20 -21 -20 -26 0 -3 10 -11 19 -17 19 -10 0 -10 -3 0 -15z
m155 -95 c-3 -5 -10 -10 -16 -10 -5 0 -9 5 -9 10 0 6 7 10 16 10 8 0 12 -4 9
-10z m145 -403 c0 -8 -7 -14 -15 -14 -11 0 -12 4 -4 14 6 7 13 13 15 13 2 0 4
-6 4 -13z m-5 -48 c11 -17 -1 -21 -15 -4 -8 9 -8 15 -2 15 6 0 14 -5 17 -11z
m72 -141 c-3 -8 -6 -5 -6 6 -1 11 2 17 5 13 3 -3 4 -12 1 -19z m26 -13 c-3 -9
-8 -14 -10 -11 -3 3 -2 9 2 15 9 16 15 13 8 -4z m457 -294 c0 -12 -30 -22 -43
-14 -7 4 -3 9 9 14 26 10 34 10 34 0z m34 -36 c3 -8 1 -15 -4 -15 -6 0 -10 7
-10 15 0 8 2 15 4 15 2 0 6 -7 10 -15z m-361 -10 c-3 -9 -8 -14 -10 -11 -3 3
-2 9 2 15 9 16 15 13 8 -4z m397 -15 c0 -5 -5 -10 -11 -10 -5 0 -7 5 -4 10 3
6 8 10 11 10 2 0 4 -4 4 -10z m-285 -21 c-7 -10 -35 -1 -35 11 0 5 9 6 20 3
11 -3 17 -9 15 -14z m100 1 c3 -5 2 -10 -4 -10 -5 0 -13 5 -16 10 -3 6 -2 10
4 10 5 0 13 -4 16 -10z m-15 -49 c0 -18 -18 -21 -30 -6 -10 13 -9 15 9 15 11
0 21 -4 21 -9z"/>
<path d="M210 2565 c0 -20 17 -28 23 -11 3 8 -1 17 -9 20 -8 3 -14 -1 -14 -9z"/>
<path d="M458 2554 c-3 -2 -4 -19 -2 -36 4 -29 3 -30 -14 -15 -13 12 -22 13
-32 6 -11 -8 -12 -12 -2 -16 6 -2 12 -10 12 -17 0 -7 5 -17 11 -23 9 -9 16 -6
29 9 12 15 19 18 24 10 4 -7 3 -12 -1 -12 -5 0 -10 -10 -11 -22 -3 -34 7 -70
18 -63 5 3 7 12 3 20 -3 9 1 22 8 31 9 11 10 17 1 23 -7 4 -8 12 -2 21 15 23
12 29 -11 23 -16 -5 -20 -2 -17 8 3 8 11 13 17 11 9 -2 9 3 1 17 -12 23 -25
33 -32 25z"/>
<path d="M830 2551 c0 -9 30 -24 36 -18 2 1 -6 8 -16 15 -11 7 -20 8 -20 3z"/>
<path d="M115 2540 c-3 -5 -1 -10 4 -10 6 0 11 5 11 10 0 6 -2 10 -4 10 -3 0
-8 -4 -11 -10z"/>
<path d="M750 2539 c0 -5 5 -7 10 -4 6 3 10 8 10 11 0 2 -4 4 -10 4 -5 0 -10
-5 -10 -11z"/>
<path d="M140 2529 c0 -5 5 -7 10 -4 6 3 10 8 10 11 0 2 -4 4 -10 4 -5 0 -10
-5 -10 -11z"/>
<path d="M320 2536 c0 -2 7 -6 15 -10 8 -3 15 -1 15 4 0 6 -7 10 -15 10 -8 0
-15 -2 -15 -4z"/>
<path d="M516 2533 c-11 -11 -7 -20 9 -20 8 0 15 4 15 8 0 11 -16 20 -24 12z"/>
<path d="M703 2509 c-2 -23 3 -25 10 -4 4 8 3 16 -1 19 -4 3 -9 -4 -9 -15z"/>
<path d="M760 2509 c0 -5 5 -7 10 -4 6 3 10 8 10 11 0 2 -4 4 -10 4 -5 0 -10
-5 -10 -11z"/>
<path d="M885 2509 c-11 -16 -1 -19 13 -3 7 8 8 14 3 14 -5 0 -13 -5 -16 -11z"/>
<path d="M1218 2503 c14 -6 16 -43 2 -43 -5 0 -1 -9 10 -20 12 -12 18 -25 15
-30 -3 -4 3 -11 12 -13 16 -4 16 -5 -1 -6 -12 -1 -16 -6 -12 -17 3 -9 6 -18 6
-21 0 -3 6 0 14 6 10 9 16 8 26 -4 10 -12 10 -15 -1 -15 -8 -1 0 -7 16 -15
l30 -15 -27 3 c-23 4 -28 0 -34 -26 -4 -20 -1 -34 9 -44 13 -14 17 -12 32 10
13 21 19 24 30 14 8 -7 9 -14 3 -18 -7 -4 -6 -9 1 -13 6 -4 14 0 18 9 3 10 1
20 -6 24 -8 5 -8 19 3 54 8 27 10 49 5 53 -5 3 -9 0 -9 -6 0 -6 -4 -8 -10 -5
-5 3 -10 -1 -10 -9 0 -9 5 -16 11 -16 5 0 7 -5 4 -10 -10 -17 -36 16 -28 37 4
10 10 20 14 23 4 3 1 11 -7 17 -10 10 -16 10 -28 -3 -15 -14 -16 -14 -16 0 0
9 -7 16 -16 16 -11 0 -14 6 -9 23 5 18 4 19 -5 7 -10 -12 -11 -10 -6 9 6 29
-9 51 -33 50 -10 0 -11 -2 -3 -6z m92 -133 c0 -5 -5 -10 -11 -10 -5 0 -7 5 -4
10 3 6 8 10 11 10 2 0 4 -4 4 -10z m5 -88 c-3 -3 -11 0 -18 7 -9 10 -8 11 6 5
10 -3 15 -9 12 -12z"/>
<path d="M283 2485 c-13 -14 -7 -25 14 -25 14 0 18 26 6 33 -5 3 -13 -1 -20
-8z"/>
<path d="M1275 2490 c3 -5 8 -10 11 -10 2 0 4 5 4 10 0 6 -5 10 -11 10 -5 0
-7 -4 -4 -10z"/>
<path d="M186 2468 c-11 -10 -14 -18 -8 -18 6 0 14 5 17 10 10 17 28 11 21 -6
-5 -14 -4 -15 9 -4 20 16 19 27 -2 32 -10 3 -27 -4 -37 -14z"/>
<path d="M381 2474 c0 -11 3 -14 6 -6 3 7 2 16 -1 19 -3 4 -6 -2 -5 -13z"/>
<path d="M544 2471 c1 -22 26 -26 26 -4 0 14 -2 15 -9 4 -8 -12 -10 -12 -13 0
-4 12 -5 12 -4 0z"/>
<path d="M751 2474 c0 -11 3 -14 6 -6 3 7 2 16 -1 19 -3 4 -6 -2 -5 -13z"/>
<path d="M840 2476 c0 -8 4 -17 9 -20 5 -4 7 3 4 14 -6 23 -13 26 -13 6z"/>
<path d="M874 2469 c-3 -6 -1 -16 5 -22 9 -9 11 -8 6 5 -5 12 0 18 17 21 22 4
22 4 1 6 -12 0 -25 -4 -29 -10z"/>
<path d="M930 2465 c0 -8 4 -15 10 -15 5 0 7 7 4 15 -4 8 -8 15 -10 15 -2 0
-4 -7 -4 -15z"/>
<path d="M1585 2463 c3 -8 5 -17 5 -19 0 -3 5 -2 10 1 16 10 12 32 -5 32 -10
0 -14 -6 -10 -14z"/>
<path d="M787 2450 c-8 -11 -16 -17 -19 -14 -4 3 -15 0 -26 -7 -19 -12 -19
-12 0 -31 15 -15 23 -17 31 -9 8 8 6 11 -7 11 -10 0 -14 5 -10 11 3 6 15 8 26
6 15 -4 18 -1 13 14 -8 23 7 25 25 4 7 -9 15 -13 17 -11 3 2 -5 14 -16 25 -20
20 -20 20 -34 1z"/>
<path d="M1119 2468 c-7 -24 -1 -68 9 -68 8 0 10 5 6 12 -5 7 -2 9 8 5 24 -9
29 27 7 41 -18 12 -28 15 -30 10z"/>
<path d="M335 2452 c6 -4 10 -17 9 -30 -1 -12 1 -20 4 -17 3 3 12 -5 19 -17
10 -18 12 -20 13 -5 0 9 6 17 13 17 8 0 7 4 -3 10 -8 5 -11 10 -6 10 5 0 -1 9
-14 20 -13 11 -28 20 -34 20 -7 0 -8 -3 -1 -8z"/>
<path d="M690 2448 c0 -10 -5 -18 -12 -18 -6 0 -9 -3 -5 -6 3 -3 12 -2 21 3
10 6 12 13 6 23 -8 13 -10 12 -10 -2z"/>
<path d="M405 2441 c-3 -5 -1 -12 5 -16 5 -3 10 1 10 9 0 18 -6 21 -15 7z"/>
<path d="M1631 2424 c0 -11 3 -14 6 -6 3 7 2 16 -1 19 -3 4 -6 -2 -5 -13z"/>
<path d="M850 2410 c0 -11 4 -20 8 -20 4 0 8 9 9 20 1 11 -2 20 -8 20 -5 0 -9
-9 -9 -20z"/>
<path d="M293 2413 c-10 -4 -10 -9 0 -24 13 -20 67 -27 67 -8 0 6 -9 8 -20 4
-14 -5 -22 -1 -28 13 -4 10 -12 17 -19 15z"/>
<path d="M1178 2414 c-14 -13 -8 -32 11 -37 11 -3 22 1 25 9 3 8 0 11 -9 8 -7
-3 -15 2 -17 11 -1 9 -6 13 -10 9z"/>
<path d="M803 2398 c-22 -29 -24 -41 -3 -20 12 13 20 25 17 28 -2 2 -9 -1 -14
-8z"/>
<path d="M666 2377 c3 -10 9 -15 12 -12 3 3 0 11 -7 18 -10 9 -11 8 -5 -6z"/>
<path d="M534 2367 c-6 -7 -9 -18 -7 -24 2 -6 -4 -13 -14 -16 -11 -3 -8 -5 10
-6 25 -1 27 2 21 21 -6 20 -5 21 9 10 13 -11 15 -10 10 7 -6 24 -13 26 -29 8z"/>
<path d="M57 2356 c-3 -8 1 -17 9 -20 9 -4 14 1 14 14 0 23 -15 27 -23 6z"/>
<path d="M148 2353 c7 -3 16 -2 19 1 4 3 -2 6 -13 5 -11 0 -14 -3 -6 -6z"/>
<path d="M385 2350 c-11 -4 -22 -18 -26 -31 -3 -13 -11 -23 -18 -21 -7 1 -9
-2 -5 -9 5 -8 16 -2 33 20 24 29 27 30 42 15 13 -12 18 -13 24 -3 5 8 4 10 -4
5 -6 -4 -14 1 -19 12 -5 14 -12 17 -27 12z"/>
<path d="M722 2351 c-13 -3 -23 -9 -23 -13 1 -5 1 -9 0 -10 -7 -24 -4 -40 9
-50 15 -12 16 -11 3 5 -12 15 -11 17 3 17 9 0 16 -6 16 -14 0 -15 41 -30 51
-18 13 14 20 52 10 52 -6 0 -11 -4 -11 -9 0 -10 -25 -9 -36 1 -3 4 -13 5 -22
2 -10 -2 -5 2 10 9 31 15 24 36 -10 28z m56 -76 c-3 -3 -13 -2 -22 1 -14 5
-15 9 -4 15 13 8 36 -6 26 -16z"/>
<path d="M1060 2350 c0 -5 5 -10 11 -10 5 0 7 5 4 10 -3 6 -8 10 -11 10 -2 0
-4 -4 -4 -10z"/>
<path d="M1090 2335 c-7 -9 -10 -18 -7 -21 3 -4 -4 -15 -16 -25 -12 -10 -16
-18 -9 -19 6 0 12 -7 12 -15 0 -13 2 -14 14 -3 12 11 11 14 -3 19 -13 5 -12 7
8 14 15 4 26 3 31 -5 5 -8 9 -5 13 9 4 16 0 21 -14 21 -24 0 -25 16 -1 29 15
9 15 10 1 11 -9 0 -22 -7 -29 -15z"/>
<path d="M846 2309 c-8 -41 -8 -51 2 -45 8 5 16 76 9 76 -3 0 -7 -14 -11 -31z"/>
<path d="M312 2310 c0 -14 2 -19 5 -12 2 6 2 18 0 25 -3 6 -5 1 -5 -13z"/>
<path d="M965 2319 c-4 -6 -5 -12 -2 -15 2 -3 7 2 10 11 7 17 1 20 -8 4z"/>
<path d="M1227 2309 c3 -10 9 -16 14 -13 13 8 11 21 -5 27 -10 4 -12 0 -9 -14z"/>
<path d="M930 2310 c0 -5 5 -10 11 -10 5 0 7 5 4 10 -3 6 -8 10 -11 10 -2 0
-4 -4 -4 -10z"/>
<path d="M1656 2307 c3 -10 9 -15 12 -12 3 3 0 11 -7 18 -10 9 -11 8 -5 -6z"/>
<path d="M142 2293 c4 -27 -10 -43 -40 -43 -23 -1 -25 -2 -9 -11 9 -5 17 -17
17 -24 0 -8 4 -15 10 -15 5 0 7 7 4 15 -5 11 -2 13 12 8 14 -5 16 -3 11 11 -4
10 -1 24 8 32 8 8 12 21 9 29 -8 21 -26 19 -22 -2z"/>
<path d="M875 2300 c3 -5 8 -10 11 -10 2 0 4 5 4 10 0 6 -5 10 -11 10 -5 0 -7
-4 -4 -10z"/>
<path d="M1191 2284 c-12 -15 -21 -21 -21 -14 0 7 -3 10 -6 7 -4 -4 -1 -14 6
-22 12 -15 14 -15 22 0 5 8 13 13 18 10 5 -3 11 -1 14 4 4 5 2 12 -4 16 -6 4
-8 11 -5 16 13 20 -5 8 -24 -17z"/>
<path d="M387 2279 c4 -13 8 -18 11 -10 2 7 -1 18 -6 23 -8 8 -9 4 -5 -13z"/>
<path d="M280 2270 c0 -11 4 -20 9 -20 5 0 7 9 4 20 -3 11 -7 20 -9 20 -2 0
-4 -9 -4 -20z"/>
<path d="M670 2280 c0 -5 5 -10 11 -10 5 0 7 5 4 10 -3 6 -8 10 -11 10 -2 0
-4 -4 -4 -10z"/>
<path d="M920 2285 c0 -5 5 -17 10 -25 5 -8 10 -10 10 -5 0 6 -5 17 -10 25 -5
8 -10 11 -10 5z"/>
<path d="M1002 2276 c7 -8 15 -12 17 -11 5 6 -10 25 -20 25 -5 0 -4 -6 3 -14z"/>
<path d="M315 2270 c-3 -5 1 -10 10 -10 9 0 13 5 10 10 -3 6 -8 10 -10 10 -2
0 -7 -4 -10 -10z"/>
<path d="M1236 2265 c-8 -22 -8 -22 9 -22 17 0 18 6 6 25 -7 11 -10 10 -15 -3z"/>
<path d="M1037 2247 c3 -15 9 -27 14 -27 13 0 11 13 -5 35 -13 18 -14 18 -9
-8z"/>
<path d="M191 2223 c-6 -13 -7 -23 -2 -23 5 0 11 7 15 15 8 22 35 19 29 -4 -3
-10 1 -22 9 -26 7 -5 10 -4 5 0 -4 5 0 19 8 31 13 21 13 23 0 18 -8 -4 -15 -2
-15 3 0 19 -39 8 -49 -14z"/>
<path d="M526 2242 c-3 -6 -1 -14 5 -17 14 -9 20 -2 10 14 -6 8 -11 9 -15 3z"/>
<path d="M607 2244 c-8 -9 21 -44 37 -44 6 0 4 6 -5 13 -9 7 -18 18 -20 25 -2
7 -8 10 -12 6z"/>
<path d="M753 2235 c-8 -23 0 -24 20 -3 14 15 15 18 2 18 -9 0 -18 -7 -22 -15z"/>
<path d="M986 2241 c-3 -5 1 -11 9 -15 8 -3 15 -1 15 4 0 13 -18 22 -24 11z"/>
<path d="M1095 2240 c3 -5 8 -10 11 -10 2 0 4 5 4 10 0 6 -5 10 -11 10 -5 0
-7 -4 -4 -10z"/>
<path d="M1130 2246 c0 -2 7 -7 16 -10 8 -3 12 -2 9 4 -6 10 -25 14 -25 6z"/>
<path d="M1206 2225 c4 -8 8 -15 10 -15 2 0 4 7 4 15 0 8 -4 15 -10 15 -5 0
-7 -7 -4 -15z"/>
<path d="M570 2207 c-12 -19 -11 -21 2 -10 8 7 18 10 21 6 4 -3 7 -1 7 5 0 21
-16 21 -30 -1z"/>
<path d="M1330 2220 c0 -5 5 -10 11 -10 5 0 7 5 4 10 -3 6 -8 10 -11 10 -2 0
-4 -4 -4 -10z"/>
<path d="M52 2190 c0 -21 3 -27 14 -23 17 6 17 13 0 35 -12 16 -13 15 -14 -12z"/>
<path d="M105 2179 c-4 -6 -5 -12 -2 -15 2 -3 7 2 10 11 7 17 1 20 -8 4z"/>
<path d="M1710 2170 c0 -6 7 -10 15 -10 8 0 15 2 15 4 0 2 -7 6 -15 10 -8 3
-15 1 -15 -4z"/>
<path d="M146 2158 c-8 -5 -13 -15 -10 -23 4 -8 1 -15 -5 -15 -7 0 -9 -10 -7
-25 3 -14 0 -25 -5 -25 -6 0 -7 -5 -4 -10 8 -14 45 6 45 24 0 8 8 17 17 20 15
6 15 9 3 16 -11 7 -7 10 13 16 16 3 26 11 24 18 -4 13 -49 16 -71 4z"/>
<path d="M10 2139 c0 -5 5 -7 10 -4 6 3 10 8 10 11 0 2 -4 4 -10 4 -5 0 -10
-5 -10 -11z"/>
<path d="M65 2130 c3 -5 8 -10 11 -10 2 0 4 5 4 10 0 6 -5 10 -11 10 -5 0 -7
-4 -4 -10z"/>
<path d="M250 2110 c0 -5 5 -10 10 -10 6 0 10 5 10 10 0 6 -4 10 -10 10 -5 0
-10 -4 -10 -10z"/>
<path d="M1 2064 c0 -11 3 -14 6 -6 3 7 2 16 -1 19 -3 4 -6 -2 -5 -13z"/>
<path d="M63 2058 c3 -10 2 -18 -3 -18 -14 0 -7 -39 9 -45 7 -3 16 -3 19 0 3
3 0 5 -7 5 -9 0 -9 5 -1 20 9 16 7 24 -6 38 -17 16 -18 16 -11 0z"/>
<path d="M619 2060 c-1 -8 -1 -18 0 -22 1 -8 -15 -12 -38 -8 -13 1 -13 -1 -2
-14 8 -9 19 -16 25 -16 16 0 35 46 25 62 -7 10 -9 10 -10 -2z"/>
<path d="M185 2040 c10 -11 25 -20 33 -20 12 0 12 4 -3 20 -10 11 -25 20 -33
20 -12 0 -12 -4 3 -20z"/>
<path d="M150 2030 c0 -5 4 -10 9 -10 6 0 13 5 16 10 3 6 -1 10 -9 10 -9 0
-16 -4 -16 -10z"/>
<path d="M566 1985 c4 -8 10 -12 15 -9 11 6 2 24 -11 24 -5 0 -7 -7 -4 -15z"/>
<path d="M1690 1944 c0 -20 39 -51 62 -50 14 1 24 -2 22 -6 -2 -3 0 -9 4 -12
5 -3 9 4 8 16 -1 28 -33 48 -45 29 -7 -11 -12 -10 -22 8 -13 20 -29 28 -29 15z"/>
<path d="M716 1932 c-3 -5 1 -9 9 -9 8 0 12 4 9 9 -3 4 -7 8 -9 8 -2 0 -6 -4
-9 -8z"/>
<path d="M1660 1915 c7 -9 15 -13 17 -11 7 7 -7 26 -19 26 -6 0 -6 -6 2 -15z"/>
<path d="M710 1900 c0 -5 5 -10 10 -10 6 0 10 5 10 10 0 6 -4 10 -10 10 -5 0
-10 -4 -10 -10z"/>
<path d="M1690 1901 c0 -6 5 -13 10 -16 6 -3 10 1 10 9 0 9 -4 16 -10 16 -5 0
-10 -4 -10 -9z"/>
<path d="M734 1856 c4 -20 1 -26 -14 -26 -60 0 -93 -49 -93 -136 0 -39 -4 -54
-14 -54 -7 0 -16 7 -19 15 -4 8 -15 15 -26 15 -10 0 -17 -4 -14 -9 3 -5 -3
-11 -14 -14 -11 -3 -20 -1 -20 4 0 5 -7 9 -15 9 -18 0 -21 -55 -4 -65 6 -4 8
-13 5 -20 -2 -7 0 -17 6 -23 6 -6 6 -12 -3 -17 -7 -5 -10 -4 -6 2 4 6 -1 17
-10 24 -12 10 -15 10 -9 1 8 -14 -15 -42 -36 -43 -7 0 -5 -4 6 -8 18 -7 18 -8
1 -25 -20 -19 -14 -32 11 -22 11 4 15 14 12 29 -3 15 0 24 9 24 7 0 13 -9 13
-20 0 -13 5 -17 16 -13 9 3 18 6 21 6 3 0 0 6 -6 14 -13 15 -5 45 13 48 6 0
16 2 21 2 22 4 55 28 55 40 0 18 27 29 33 13 2 -7 -3 -18 -12 -25 -13 -10 -11
-10 12 -2 15 5 28 7 28 5 1 -3 2 -10 3 -15 1 -14 28 -30 38 -24 4 3 8 0 8 -6
0 -6 -13 -19 -30 -28 -20 -11 -32 -28 -36 -49 -7 -35 -34 -54 -34 -23 0 10 -4
22 -10 25 -16 10 -11 53 8 65 15 10 15 11 -3 7 -11 -3 -29 -8 -39 -13 -13 -5
-17 -4 -12 4 10 17 -10 24 -24 7 -14 -17 -4 -38 13 -29 7 4 1 -4 -12 -19 -12
-14 -24 -37 -25 -50 0 -14 -4 -23 -8 -20 -5 2 -8 -3 -8 -11 0 -23 -18 -19 -22
4 -3 22 -24 24 -22 3 1 -7 -2 -13 -8 -13 -5 0 -6 -5 -3 -10 8 -13 -12 -33 -55
-55 -19 -10 -41 -26 -48 -37 -11 -15 -17 -16 -35 -6 -12 7 -25 11 -30 10 -4
-1 -7 3 -7 9 0 5 -5 7 -10 4 -6 -4 -8 -11 -5 -16 8 -11 -19 -51 -28 -42 -4 3
-7 1 -7 -6 0 -9 -9 -12 -25 -9 -14 3 -25 1 -25 -3 0 -5 12 -9 28 -10 21 0 23
-2 9 -7 -15 -6 -13 -9 13 -19 21 -8 28 -8 23 0 -4 7 0 8 12 4 9 -4 25 -2 34 5
13 10 14 10 4 -2 -7 -8 -13 -18 -13 -22 0 -15 40 -8 59 11 10 10 23 15 28 10
4 -4 24 -4 44 0 41 9 74 -2 50 -18 -7 -5 -10 -14 -7 -20 4 -6 1 -11 -7 -11 -8
0 -18 -12 -22 -27 -3 -15 -15 -33 -26 -41 -11 -7 -17 -18 -14 -23 4 -5 -1 -9
-9 -9 -9 0 -16 8 -16 18 -1 15 -2 15 -13 2 -7 -8 -25 -16 -42 -17 -16 -1 -35
-9 -41 -18 -6 -8 -14 -12 -17 -8 -4 3 -7 -1 -7 -10 0 -9 5 -17 11 -17 6 0 9
-6 6 -12 -2 -7 -15 -12 -30 -10 -16 2 -30 -3 -37 -15 -10 -16 -11 -16 -6 -1 3
10 1 20 -4 23 -6 4 -10 -9 -11 -27 0 -29 -1 -30 -9 -11 -12 28 -70 84 -81 77
-11 -6 -12 -24 -2 -23 23 4 25 -3 5 -17 -12 -8 -22 -22 -22 -31 0 -13 -3 -13
-15 -3 -13 10 -15 9 -16 -9 -1 -11 -2 -27 -3 -33 -1 -7 5 -12 12 -11 6 2 12
-2 12 -7 0 -36 112 -93 131 -66 4 4 16 3 27 -3 22 -12 78 -5 101 13 11 8 13 8
7 -1 -4 -7 -3 -13 1 -13 5 0 17 -13 26 -30 21 -34 15 -36 -38 -14 -35 14 -39
14 -54 -1 -14 -14 -14 -17 -1 -25 8 -5 23 -7 32 -4 12 4 16 1 13 -8 -7 -17 60
-39 75 -24 18 18 11 28 -19 24 -17 -2 -28 -1 -25 4 3 4 18 8 33 8 17 0 39 10
54 25 15 16 28 22 32 15 11 -18 43 -11 51 13 12 41 25 49 45 31 11 -10 19 -12
19 -6 0 6 -6 14 -12 19 -23 14 -81 32 -90 27 -4 -3 -5 2 -2 10 3 9 14 16 23
17 9 0 41 1 71 3 37 2 60 -2 69 -11 16 -17 80 -14 99 5 7 6 22 12 33 12 10 0
19 5 19 10 0 15 48 12 57 -4 7 -12 11 -12 33 0 l25 14 -30 -6 c-23 -4 -26 -3
-15 5 8 6 26 11 40 11 14 0 36 7 50 15 l25 13 -27 11 c-31 12 -46 31 -24 31 9
0 16 5 16 10 0 20 48 9 84 -19 24 -19 54 -32 86 -36 50 -7 134 -58 190 -115
14 -14 36 -33 50 -43 27 -18 55 -23 45 -7 -3 6 4 9 19 8 13 -1 23 -5 20 -9 -2
-4 0 -10 6 -14 5 -3 10 -3 10 2 0 4 31 7 69 5 54 -3 69 0 74 12 3 8 2 18 -3
21 -6 4 -10 19 -10 36 0 23 4 28 20 26 11 -2 23 -6 26 -10 4 -4 17 -7 30 -7
33 0 55 -11 47 -23 -4 -6 0 -8 11 -4 11 4 15 3 11 -4 -7 -11 22 -38 40 -38 6
0 2 6 -8 13 -25 20 -6 28 24 11 13 -8 32 -18 41 -21 10 -3 15 -11 11 -18 -4
-6 2 -4 12 4 11 9 16 10 11 3 -4 -8 -1 -13 8 -13 9 0 16 -5 16 -12 0 -9 3 -9
12 0 9 9 3 21 -28 55 -75 79 -146 167 -135 167 20 0 85 -37 105 -59 30 -33 65
-27 114 22 41 42 53 67 32 67 -5 0 -10 -7 -10 -15 0 -8 -3 -14 -8 -12 -4 1
-16 -7 -28 -18 -35 -33 -64 -55 -73 -55 -12 0 -21 36 -21 83 0 29 -4 37 -18
37 -32 0 -115 60 -189 137 -40 41 -74 82 -75 91 -1 9 -2 24 -3 32 0 8 -4 21
-9 28 -4 7 -3 19 4 26 6 8 7 16 3 18 -4 1 -17 21 -29 43 -16 31 -19 49 -13 80
13 69 11 108 -6 101 -8 -3 -14 -2 -14 2 3 21 -2 44 -8 38 -5 -4 -9 -12 -9 -17
-1 -5 -2 -13 -3 -18 0 -4 -13 -21 -28 -36 -16 -16 -22 -25 -15 -21 11 7 12 4
3 -13 -7 -11 -16 -21 -22 -21 -19 0 -35 24 -31 47 5 26 12 29 30 11 9 -9 12
-7 12 9 0 13 -8 24 -20 28 -11 3 -20 11 -20 17 0 6 -9 8 -20 5 -11 -3 -18 -1
-14 4 3 5 -4 9 -15 9 -11 0 -23 5 -26 10 -11 18 -43 12 -40 -7 2 -13 10 -17
29 -16 19 1 26 -3 26 -17 0 -10 5 -20 12 -22 7 -3 6 -7 -5 -11 -9 -3 -17 -2
-17 3 0 6 -6 10 -13 10 -7 0 -26 13 -42 30 -15 16 -31 27 -35 25 -4 -2 -16 4
-27 15 -11 10 -42 21 -69 24 -47 6 -48 6 -17 -6 18 -7 38 -19 45 -26 11 -11
10 -12 -4 -7 -9 4 -26 2 -37 -4 -18 -10 -20 -9 -14 6 6 15 4 16 -9 5 -12 -9
-18 -10 -23 -2 -4 6 -17 10 -28 9 -59 -4 -67 17 -9 24 20 3 4 4 -36 3 -61 -1
-70 0 -56 11 9 7 22 10 28 6 6 -3 7 -2 3 3 -5 5 -14 9 -20 9 -7 1 -11 6 -10
13 2 7 -4 9 -15 5 -29 -10 -33 -14 -26 -25 4 -6 10 -5 15 3 5 8 9 10 9 4 0 -5
-4 -16 -9 -23 -6 -11 -10 -10 -16 5 -11 24 -16 44 -19 68 -4 29 -28 75 -38 75
-5 0 -6 -4 -3 -10 4 -6 -10 -9 -34 -8 -22 1 -38 5 -35 10 3 4 -2 15 -11 24
-14 15 -15 14 -11 -10z m194 -202 c14 -15 14 -16 -3 -13 -10 2 -20 10 -23 17
-5 17 6 15 26 -4z m-331 -19 c9 -24 -1 -27 -15 -5 -8 13 -8 20 -2 20 6 0 13
-7 17 -15z m100 -17 c-3 -7 -5 -2 -5 12 0 14 2 19 5 13 2 -7 2 -19 0 -25z
m-167 12 c8 13 30 5 30 -11 0 -6 -4 -7 -10 -4 -5 3 -10 -3 -10 -15 0 -21 0
-21 -21 -1 -13 12 -18 24 -13 32 6 11 9 10 12 0 3 -10 6 -11 12 -1z m927 -62
c-3 -8 -6 -5 -6 6 -1 11 2 17 5 13 3 -3 4 -12 1 -19z m-437 -30 c0 -3 -9 -4
-20 -1 -23 6 -26 19 -7 26 11 4 27 -10 27 -25z m320 22 c0 -5 -4 -10 -10 -10
-5 0 -10 5 -10 10 0 6 5 10 10 10 6 0 10 -4 10 -10z m-341 -36 c9 -8 -32 -35
-56 -37 -16 -1 -34 -9 -41 -17 -8 -8 -11 -9 -7 -3 4 9 -5 12 -35 9 -32 -3 -38
-1 -30 9 8 9 7 14 -2 18 -7 3 1 5 18 4 17 0 37 4 44 8 9 5 11 4 6 -3 -11 -18
3 -14 31 8 23 18 54 20 72 4z m-204 -17 c14 -11 15 -16 5 -22 -9 -5 -11 -4 -6
3 5 8 0 12 -13 12 -12 0 -21 5 -21 10 0 14 13 13 35 -3z m209 -54 c5 -13 4
-14 -9 -3 -12 10 -15 10 -15 -4 0 -21 -16 -21 -24 1 -7 18 10 34 30 26 7 -2
15 -12 18 -20z m-264 -7 c0 -3 -4 -8 -10 -11 -5 -3 -10 -1 -10 4 0 6 5 11 10
11 6 0 10 -2 10 -4z m774 -72 c3 -8 2 -12 -4 -9 -6 3 -10 10 -10 16 0 14 7 11
14 -7z m-237 -16 c-3 -8 -6 -5 -6 6 -1 11 2 17 5 13 3 -3 4 -12 1 -19z m195
-28 c24 0 41 -101 19 -114 -5 -3 -6 14 -4 37 4 31 1 46 -10 56 -14 11 -15 9
-5 -17 9 -23 9 -36 0 -54 -12 -23 -12 -23 -6 0 3 12 0 38 -6 58 -9 27 -16 33
-30 29 -10 -3 -21 -1 -25 4 -4 7 1 9 12 5 13 -4 12 -1 -4 12 -13 9 -23 21 -23
26 0 5 15 -2 33 -16 19 -15 41 -26 49 -26z m19 23 c2 1 1 -2 -2 -7 -10 -12
-29 2 -29 22 1 16 2 16 14 0 7 -10 15 -17 17 -15z m-172 -15 c9 -25 6 -38 -11
-38 -6 0 -8 11 -6 25 3 13 0 26 -6 29 -7 3 -6 5 2 5 7 1 16 -9 21 -21z m211
-18 c0 -5 -4 -10 -10 -10 -5 0 -10 5 -10 10 0 6 5 10 10 10 6 0 10 -4 10 -10z
m-1220 -60 c0 -5 -4 -10 -10 -10 -5 0 -10 5 -10 10 0 6 5 10 10 10 6 0 10 -4
10 -10z m30 -55 c0 -5 -5 -3 -10 5 -5 8 -10 20 -10 25 0 6 5 3 10 -5 5 -8 10
-19 10 -25z m922 -95 c-42 -26 -56 -26 -17 0 17 11 35 20 40 20 6 0 -5 -9 -23
-20z m-399 -60 c22 0 22 -26 0 -34 -11 -5 -25 2 -42 20 l-25 27 25 -6 c13 -4
32 -7 42 -7z m-533 -15 c0 -8 5 -15 11 -15 5 0 8 -4 4 -10 -9 -14 -32 -1 -38
21 -3 12 0 19 9 19 8 0 14 -7 14 -15z m70 5 c0 -5 -5 -10 -11 -10 -5 0 -7 5
-4 10 3 6 8 10 11 10 2 0 4 -4 4 -10z m410 -30 c0 -5 -2 -10 -4 -10 -3 0 -8 5
-11 10 -3 6 -1 10 4 10 6 0 11 -4 11 -10z m-35 -10 c4 -6 -5 -10 -20 -10 -15
0 -24 4 -20 10 3 6 12 10 20 10 8 0 17 -4 20 -10z m105 0 c0 -5 -2 -10 -4 -10
-3 0 -8 5 -11 10 -3 6 -1 10 4 10 6 0 11 -4 11 -10z m-410 -15 c7 -8 9 -15 6
-15 -4 0 -14 7 -22 15 -9 8 -11 15 -6 15 5 0 15 -7 22 -15z m80 -5 c21 -7 18
-8 -18 -9 -26 -1 -41 3 -37 9 7 11 19 11 55 0z m1064 -59 c3 -5 -1 -11 -9 -14
-9 -4 -12 -1 -8 9 6 16 10 17 17 5z m-1168 -20 c-4 -6 -14 -7 -23 -4 -15 6
-14 7 3 13 22 9 29 6 20 -9z m-63 -47 c-4 -11 -9 -12 -19 -3 -18 15 -18 14 5
16 14 1 18 -3 14 -13z"/>
<path d="M610 1860 c0 -5 5 -10 11 -10 5 0 7 5 4 10 -3 6 -8 10 -11 10 -2 0
-4 -4 -4 -10z"/>
<path d="M1875 1830 c3 -5 11 -10 16 -10 6 0 7 5 4 10 -3 6 -11 10 -16 10 -6
0 -7 -4 -4 -10z"/>
<path d="M1930 1760 c0 -5 5 -10 10 -10 6 0 10 5 10 10 0 6 -4 10 -10 10 -5 0
-10 -4 -10 -10z"/>
<path d="M1836 1741 c-3 -5 1 -11 9 -14 9 -4 12 -1 8 9 -6 16 -10 17 -17 5z"/>
<path d="M531 1704 c0 -11 3 -14 6 -6 3 7 2 16 -1 19 -3 4 -6 -2 -5 -13z"/>
<path d="M587 1699 c4 -13 8 -18 11 -10 2 7 -1 18 -6 23 -8 8 -9 4 -5 -13z"/>
<path d="M338 1503 c7 -3 16 -2 19 1 4 3 -2 6 -13 5 -11 0 -14 -3 -6 -6z"/>
<path d="M317 1463 c-11 -10 -8 -20 6 -26 8 -3 14 3 14 14 2 19 -8 25 -20 12z"/>
<path d="M405 1420 c-3 -5 -1 -10 4 -10 6 0 10 -5 9 -11 -5 -21 19 -20 25 1 3
11 1 18 -4 14 -5 -3 -9 0 -9 5 0 14 -17 14 -25 1z"/>
<path d="M2125 1418 c4 -9 13 -19 21 -22 8 -3 14 -12 14 -21 0 -8 5 -15 10
-15 6 0 10 7 10 15 0 14 12 19 33 16 15 -2 6 15 -15 28 -18 11 -23 11 -33 -2
-10 -15 -13 -15 -29 1 -16 16 -17 16 -11 0z"/>
<path d="M2390 1410 c0 -6 7 -10 15 -10 8 0 15 2 15 4 0 2 -7 6 -15 10 -8 3
-15 1 -15 -4z"/>
<path d="M2070 1400 c0 -6 7 -10 15 -10 8 0 15 2 15 4 0 2 -7 6 -15 10 -8 3
-15 1 -15 -4z"/>
<path d="M2005 1379 c-5 -7 -4 -14 3 -17 8 -2 9 -9 3 -20 -11 -22 12 -57 30
-46 8 5 10 3 5 -5 -5 -7 0 -21 10 -33 l19 -20 6 24 c5 19 8 16 14 -19 6 -35
12 -43 29 -43 13 0 17 -3 9 -8 -8 -5 -6 -14 8 -32 35 -44 127 -188 162 -252
81 -152 130 -327 126 -445 l-4 -76 67 -37 c121 -69 108 -102 108 284 0 184 -3
341 -6 350 -3 9 -13 16 -21 16 -12 0 -88 53 -153 108 -54 45 -98 91 -111 117
-16 34 -31 40 -61 24 -18 -10 -20 -9 -15 5 4 9 3 15 -1 15 -19 -3 -26 2 -13
10 12 8 11 12 -4 28 -13 13 -20 14 -23 5 -2 -7 -8 -10 -13 -6 -5 3 -9 1 -9 -5
0 -7 -8 -7 -26 -1 -18 7 -30 7 -39 0 -14 -12 -25 -3 -25 21 0 9 -7 20 -16 23
-24 9 -26 8 -19 -14 3 -11 2 -20 -3 -20 -12 0 -24 29 -16 41 3 5 1 16 -4 25
-7 13 -11 14 -17 3z m157 -107 c-23 -3 -23 -4 -6 -23 9 -10 13 -19 8 -19 -5 0
-3 -4 5 -9 12 -8 12 -11 0 -23 -12 -12 -17 -11 -31 4 -10 10 -13 20 -7 23 5 4
7 11 4 16 -4 5 -4 18 0 28 4 14 12 17 28 13 l22 -7 -23 -3z"/>
<path d="M2228 1373 c6 -2 18 -2 25 0 6 3 1 5 -13 5 -14 0 -19 -2 -12 -5z"/>
<path d="M1980 1340 c0 -5 5 -10 10 -10 6 0 10 5 10 10 0 6 -4 10 -10 10 -5 0
-10 -4 -10 -10z"/>
<path d="M2139 1324 c-12 -14 -11 -16 5 -13 11 2 21 10 24 17 5 17 -13 15 -29
-4z"/>
<path d="M191 1294 c0 -11 3 -14 6 -6 3 7 2 16 -1 19 -3 4 -6 -2 -5 -13z"/>
<path d="M225 1280 c4 -6 11 -8 16 -5 14 9 11 15 -7 15 -8 0 -12 -5 -9 -10z"/>
<path d="M1970 1089 c0 -5 5 -7 10 -4 6 3 10 8 10 11 0 2 -4 4 -10 4 -5 0 -10
-5 -10 -11z"/>
<path d="M2 1024 l-1 -66 25 27 c13 14 22 30 19 35 -3 5 4 15 16 23 13 9 16
17 10 22 -6 3 -11 3 -11 -2 0 -4 -5 0 -11 10 -5 9 -18 17 -28 17 -15 0 -18
-10 -19 -66z"/>
<path d="M100 1071 c0 -6 4 -13 10 -16 6 -3 7 1 4 9 -7 18 -14 21 -14 7z"/>
<path d="M226 1044 c-3 -9 -12 -14 -19 -11 -8 3 -14 -1 -14 -9 0 -8 4 -15 9
-15 27 -5 33 -1 35 24 2 30 -2 35 -11 11z"/>
<path d="M1856 983 c-6 -14 -5 -15 5 -6 7 7 10 15 7 18 -3 3 -9 -2 -12 -12z"/>
<path d="M798 903 c6 -2 18 -2 25 0 6 3 1 5 -13 5 -14 0 -19 -2 -12 -5z"/>
<path d="M2065 878 c-2 -7 -3 -22 -1 -33 3 -11 5 -23 5 -27 1 -5 5 -8 11 -8 5
0 7 7 4 15 -4 8 -1 15 6 15 7 0 10 7 6 16 -5 12 -2 15 10 10 10 -4 14 -1 12 6
-6 18 -47 22 -53 6z"/>
<path d="M657 864 c-14 -14 -6 -24 19 -24 16 0 24 5 22 13 -5 14 -31 21 -41
11z"/>
<path d="M602 831 c-11 -7 -11 -9 2 -14 10 -4 16 -1 16 8 0 17 -1 17 -18 6z"/>
<path d="M1 752 c1 -42 4 -80 6 -85 6 -11 44 12 42 26 -3 27 2 39 15 34 8 -3
17 2 21 11 3 9 1 18 -4 20 -6 2 -11 10 -11 18 0 8 -6 11 -16 7 -10 -4 -17 1
-21 15 -3 11 -12 23 -20 26 -12 5 -14 -8 -12 -72z"/>
<path d="M1005 820 c3 -5 8 -10 11 -10 2 0 4 5 4 10 0 6 -5 10 -11 10 -5 0 -7
-4 -4 -10z"/>
<path d="M153 813 c-7 -2 -13 -11 -13 -19 0 -8 -4 -14 -10 -14 -5 0 -10 5 -10
10 0 6 -4 10 -10 10 -19 0 -10 -15 21 -32 41 -24 46 -23 51 11 3 22 1 28 -11
23 -9 -3 -12 -1 -7 6 8 13 7 13 -11 5z"/>
<path d="M1700 799 c0 -5 5 -7 10 -4 6 3 10 8 10 11 0 2 -4 4 -10 4 -5 0 -10
-5 -10 -11z"/>
<path d="M2197 803 c-4 -3 -2 -12 4 -20 6 -7 9 -22 6 -33 -4 -17 0 -20 24 -20
29 0 33 -7 29 -43 -1 -13 4 -18 17 -15 32 6 25 36 -19 88 -44 51 -50 55 -61
43z"/>
<path d="M1893 733 c-16 -6 -17 -33 -3 -33 6 0 20 9 32 20 21 19 21 20 2 19
-10 0 -25 -3 -31 -6z"/>
<path d="M2160 699 c0 -24 85 -118 96 -106 4 4 -2 15 -15 23 -17 12 -19 19
-11 29 12 15 -3 31 -19 20 -5 -3 -17 3 -27 12 -11 11 -13 18 -5 21 16 5 14 22
-4 22 -8 0 -15 -9 -15 -21z"/>
<path d="M425 700 c-3 -5 -18 -10 -32 -10 -22 0 -26 -15 -5 -15 4 0 13 -4 20
-8 7 -5 12 -4 12 2 0 6 7 8 15 5 8 -4 21 -1 29 5 9 8 21 8 39 2 15 -6 29 -7
31 -2 5 8 -59 31 -87 31 -9 0 -19 -4 -22 -10z"/>
<path d="M85 690 c-3 -5 1 -10 10 -10 9 0 13 5 10 10 -3 6 -8 10 -10 10 -2 0
-7 -4 -10 -10z"/>
<path d="M190 679 c0 -5 5 -7 10 -4 6 3 10 8 10 11 0 2 -4 4 -10 4 -5 0 -10
-5 -10 -11z"/>
<path d="M344 639 c-3 -5 3 -12 13 -15 10 -3 28 -11 41 -17 16 -8 25 -8 34 1
6 6 9 15 5 18 -11 11 -87 22 -93 13z"/>
<path d="M1347 643 c-12 -11 -8 -23 8 -23 8 0 15 7 15 15 0 16 -12 20 -23 8z"/>
<path d="M280 616 c0 -2 7 -6 15 -10 8 -3 15 -1 15 4 0 6 -7 10 -15 10 -8 0
-15 -2 -15 -4z"/>
<path d="M1040 610 c0 -5 5 -10 11 -10 5 0 7 5 4 10 -3 6 -8 10 -11 10 -2 0
-4 -4 -4 -10z"/>
<path d="M170 595 c0 -8 2 -15 4 -15 2 0 6 7 10 15 3 8 1 15 -4 15 -6 0 -10
-7 -10 -15z"/>
<path d="M515 600 c3 -5 8 -10 11 -10 2 0 4 5 4 10 0 6 -5 10 -11 10 -5 0 -7
-4 -4 -10z"/>
<path d="M900 598 c0 -9 -8 -18 -17 -20 -13 -3 -8 -7 15 -16 32 -11 33 -10 26
11 -9 30 -24 45 -24 25z"/>
<path d="M1102 601 c-10 -6 -8 -10 9 -14 26 -7 42 0 34 14 -8 11 -26 11 -43 0z"/>
<path d="M54 589 c-2 -4 0 -10 5 -13 11 -7 41 3 41 14 0 10 -40 9 -46 -1z"/>
<path d="M1167 580 c-3 -11 -2 -22 3 -25 4 -3 10 6 12 20 6 30 -7 34 -15 5z"/>
<path d="M270 575 c7 -8 16 -12 21 -9 13 8 1 24 -18 24 -13 0 -13 -3 -3 -15z"/>
<path d="M320 581 c0 -4 11 -6 25 -3 14 2 25 6 25 8 0 2 -11 4 -25 4 -14 0
-25 -4 -25 -9z"/>
<path d="M1010 580 c19 -13 30 -13 30 0 0 6 -10 10 -22 10 -19 0 -20 -2 -8
-10z"/>
<path d="M2360 581 c0 -5 5 -13 10 -16 6 -3 10 -2 10 4 0 5 -4 13 -10 16 -5 3
-10 2 -10 -4z"/>
<path d="M1240 570 c0 -5 9 -10 21 -10 11 0 17 5 14 10 -3 6 -13 10 -21 10 -8
0 -14 -4 -14 -10z"/>
<path d="M35 560 c-3 -5 -1 -10 4 -10 6 0 11 5 11 10 0 6 -2 10 -4 10 -3 0 -8
-4 -11 -10z"/>
<path d="M451 548 c-5 -13 -7 -25 -6 -28 2 -3 -23 -5 -55 -5 l-58 0 13 -32 c8
-18 10 -33 4 -33 -5 0 -9 -5 -9 -11 0 -6 9 -9 20 -6 12 3 24 -1 29 -11 8 -14
15 -14 47 -4 26 8 42 8 50 1 7 -6 18 -8 24 -4 5 3 10 -1 10 -9 0 -11 10 -16
33 -16 21 0 39 -8 50 -21 10 -11 24 -18 32 -15 9 3 12 0 8 -10 -7 -19 -16 -18
-37 5 -15 17 -31 19 -90 12 -6 -1 -1 -8 10 -16 18 -14 17 -14 -16 -10 -19 2
-38 4 -42 4 -4 1 -8 11 -10 23 -2 19 -10 23 -46 26 -41 3 -43 2 -32 -18 7 -12
9 -24 6 -27 -8 -8 -58 46 -51 57 3 6 -3 10 -14 10 -14 0 -21 6 -21 20 0 21
-46 57 -57 46 -4 -4 -2 -16 5 -26 7 -11 12 -22 12 -25 0 -7 -34 7 -41 18 -4 5
-27 11 -52 12 -25 2 -55 8 -66 14 -15 9 -27 9 -41 1 -12 -6 -30 -8 -40 -5 -12
4 -20 2 -20 -4 0 -6 7 -11 15 -11 8 0 15 -4 15 -10 0 -5 6 -10 14 -10 8 0 16
-7 20 -15 9 -24 -23 -18 -44 8 -19 22 -19 22 -19 -40 1 -51 4 -62 17 -62 9 1
41 -2 71 -5 46 -5 52 -4 41 9 -7 8 -20 15 -28 15 -23 0 2 23 26 25 11 0 27 9
36 18 10 9 23 17 29 17 7 0 6 -4 -3 -10 -13 -8 -12 -10 3 -10 9 0 17 -4 17
-10 0 -5 -8 -6 -17 -3 -12 5 -15 2 -10 -10 3 -8 1 -18 -6 -21 -7 -3 8 -5 33
-3 44 2 45 1 42 -26 -3 -23 1 -28 27 -33 17 -4 34 -11 38 -17 3 -5 1 -7 -5 -3
-6 3 -23 1 -38 -4 -22 -9 -29 -8 -36 5 -5 8 -20 15 -34 15 -16 0 -23 4 -18 11
4 8 -3 9 -25 4 -20 -4 -31 -3 -31 4 0 6 -11 11 -24 11 -16 0 -23 -5 -22 -17 0
-10 -7 -18 -19 -20 -11 -1 -14 0 -7 3 25 11 11 23 -20 17 -43 -8 -45 -10 -22
-28 17 -13 17 -14 2 -15 -14 0 -18 -9 -18 -38 0 -32 4 -40 27 -49 25 -9 26
-11 9 -18 -12 -5 -21 -3 -27 6 -7 11 -9 11 -9 -3 0 -10 7 -18 15 -18 9 0 12
-6 8 -16 -5 -13 -7 -13 -14 -2 -7 10 -9 9 -9 -4 0 -15 29 -25 44 -15 2 1 13
-6 25 -17 20 -18 21 -18 42 5 11 13 18 18 14 12 -4 -9 1 -13 14 -13 12 0 21 5
21 10 0 6 7 10 15 10 9 0 12 -6 9 -15 -5 -11 0 -15 17 -14 13 0 18 3 12 6 -7
2 -13 9 -13 14 0 6 4 7 10 4 5 -3 10 0 10 8 0 16 26 30 40 22 4 -3 13 1 19 9
11 13 2 17 -87 42 -7 2 -10 9 -7 15 4 6 14 8 22 5 8 -3 24 1 36 9 15 11 24 12
34 3 7 -6 13 -8 13 -5 0 3 14 2 30 -3 44 -12 37 -4 -15 19 -25 11 -45 22 -45
26 0 7 52 -5 66 -16 6 -5 16 -3 22 3 9 9 6 18 -15 40 l-26 28 31 -10 c35 -10
42 2 18 33 -15 20 -30 23 -23 4 3 -8 -4 -14 -16 -15 -17 -1 -19 1 -7 8 11 7 8
10 -15 11 -16 1 -22 3 -13 6 9 2 15 10 12 17 -3 7 2 13 10 13 8 0 13 -5 9 -10
-3 -5 3 -6 16 -2 11 3 21 2 21 -3 0 -5 13 -22 30 -38 36 -36 37 -44 5 -44 -14
0 -25 -4 -25 -10 0 -5 4 -10 9 -10 4 0 7 -16 5 -34 -3 -42 13 -58 61 -61 26
-1 32 1 25 10 -13 15 -3 25 18 18 11 -5 14 -2 9 10 -5 14 0 17 24 17 27 0 30
3 23 23 -3 12 -3 19 1 14 5 -4 9 -15 10 -25 0 -9 5 -18 10 -19 15 -4 12 30 -5
51 -17 22 -18 22 53 -8 20 -9 37 -12 37 -8 0 5 14 6 31 4 23 -3 30 -1 25 7 -4
7 -15 11 -24 10 -30 -3 -67 2 -54 8 22 9 13 21 -22 27 -19 4 -37 14 -40 22 -9
24 -8 26 13 15 10 -6 22 -7 26 -3 5 4 5 1 0 -7 -6 -11 -3 -13 13 -9 12 4 22 3
22 -2 0 -10 40 -23 64 -20 11 1 15 -3 12 -9 -8 -12 6 -15 17 -5 9 10 -16 32
-30 27 -7 -3 -13 0 -13 7 0 6 4 9 9 5 5 -3 15 1 23 8 7 8 19 12 27 9 9 -3 11
0 7 7 -4 7 -16 9 -26 6 -10 -3 -21 -1 -25 5 -3 5 -1 10 5 10 22 0 -1 19 -31
25 -17 4 -28 9 -26 11 9 10 107 12 102 3 -4 -5 0 -9 8 -9 23 0 28 27 6 33 -10
3 -19 11 -19 17 0 10 3 10 14 1 10 -8 16 -9 21 -1 3 5 1 10 -6 10 -7 0 -21 7
-31 17 -10 9 -18 11 -18 5 0 -6 6 -13 13 -15 9 -4 9 -6 -1 -6 -8 -1 -16 8 -19
19 -5 20 -43 29 -43 10 0 -5 8 -10 18 -10 12 0 11 -4 -8 -14 -24 -12 -43 -7
-46 15 -1 5 -2 14 -3 19 0 6 -8 10 -16 10 -8 0 -15 7 -15 16 0 13 -6 15 -27
10 -51 -12 -83 -28 -83 -42 0 -7 -5 -16 -10 -19 -6 -4 -9 -1 -8 7 2 7 -5 12
-14 12 -10 -1 -18 1 -18 5 0 10 44 35 58 33 16 -4 15 18 -2 41 -18 23 -35 21
-45 -5z m272 -135 c-7 -2 -19 -2 -25 0 -7 3 -2 5 12 5 14 0 19 -2 13 -5z
m-613 -22 c0 -5 -6 -14 -14 -20 -10 -9 -15 -8 -19 3 -3 8 -1 17 6 20 19 7 27
7 27 -3z m337 -67 c2 -6 -9 -11 -27 -11 -31 0 -40 11 -17 20 18 8 40 4 44 -9z
m-317 -64 c0 -5 -7 -7 -15 -4 -8 4 -15 8 -15 10 0 2 7 4 15 4 8 0 15 -4 15
-10z m330 1 c0 -5 -9 -7 -20 -4 -11 3 -20 7 -20 9 0 2 9 4 20 4 11 0 20 -4 20
-9z m-285 -12 c11 -17 -1 -21 -15 -4 -8 9 -8 15 -2 15 6 0 14 -5 17 -11z m352
5 c-3 -3 -12 -4 -19 -1 -8 3 -5 6 6 6 11 1 17 -2 13 -5z m-319 -49 c-3 -3 -9
2 -12 12 -6 14 -5 15 5 6 7 -7 10 -15 7 -18z m219 -20 c-14 -28 -40 -35 -30
-7 7 17 22 32 35 32 3 0 1 -11 -5 -25z m-280 -20 c8 -8 19 -13 24 -10 5 4 9 1
9 -4 0 -15 -33 -14 -48 1 -13 13 -16 28 -6 28 3 0 12 -7 21 -15z m-37 -25 c0
-5 -4 -10 -10 -10 -5 0 -10 5 -10 10 0 6 5 10 10 10 6 0 10 -4 10 -10z m35
-30 c4 -6 -5 -10 -19 -10 -14 0 -26 -4 -26 -10 0 -5 -4 -10 -10 -10 -18 0 -10
17 13 28 29 14 35 14 42 2z"/>
<path d="M1196 552 c-4 -7 0 -15 11 -19 10 -3 21 -8 26 -10 4 -2 7 1 7 6 0 6
-6 11 -14 11 -8 0 -16 5 -18 12 -3 9 -6 9 -12 0z"/>
<path d="M808 543 c7 -3 16 -2 19 1 4 3 -2 6 -13 5 -11 0 -14 -3 -6 -6z"/>
<path d="M1632 538 c7 -19 38 -22 38 -4 0 10 -9 16 -21 16 -12 0 -19 -5 -17
-12z"/>
<path d="M2018 533 c7 -3 16 -2 19 1 4 3 -2 6 -13 5 -11 0 -14 -3 -6 -6z"/>
<path d="M20 520 c0 -5 7 -10 16 -10 8 0 12 5 9 10 -3 6 -10 10 -16 10 -5 0
-9 -4 -9 -10z"/>
<path d="M190 520 c0 -5 7 -10 15 -10 8 0 15 5 15 10 0 6 -7 10 -15 10 -8 0
-15 -4 -15 -10z"/>
<path d="M280 514 c0 -9 7 -14 17 -12 25 5 28 28 4 28 -12 0 -21 -6 -21 -16z"/>
<path d="M705 520 c-3 -5 1 -10 10 -10 9 0 13 5 10 10 -3 6 -8 10 -10 10 -2 0
-7 -4 -10 -10z"/>
<path d="M2371 514 c-19 -8 -32 -17 -28 -20 5 -6 67 23 67 31 0 6 0 7 -39 -11z"/>
<path d="M850 510 c0 -5 5 -10 11 -10 5 0 7 5 4 10 -3 6 -8 10 -11 10 -2 0 -4
-4 -4 -10z"/>
<path d="M1370 500 c0 -5 9 -10 21 -10 11 0 17 5 14 10 -3 6 -13 10 -21 10 -8
0 -14 -4 -14 -10z"/>
<path d="M975 490 c3 -5 8 -10 11 -10 2 0 4 5 4 10 0 6 -5 10 -11 10 -5 0 -7
-4 -4 -10z"/>
<path d="M1043 493 c4 -3 0 -11 -9 -17 -13 -10 -11 -12 11 -14 37 -3 48 -11
36 -26 -14 -16 -4 -26 26 -26 22 0 23 1 9 16 -9 8 -16 19 -16 24 0 5 -9 12
-20 15 -11 3 -20 13 -20 21 0 8 -5 14 -12 14 -6 0 -8 -3 -5 -7z"/>
<path d="M830 460 c0 -11 4 -20 9 -20 17 0 19 15 5 28 -12 11 -14 9 -14 -8z"/>
<path d="M1295 470 c3 -5 8 -10 11 -10 2 0 4 5 4 10 0 6 -5 10 -11 10 -5 0 -7
-4 -4 -10z"/>
<path d="M1620 451 c-27 -7 -20 -15 22 -25 15 -3 29 -2 33 3 9 15 -27 29 -55
22z"/>
<path d="M1010 440 c-13 -8 -12 -10 3 -10 9 0 17 5 17 10 0 12 -1 12 -20 0z"/>
<path d="M1210 435 c-10 -12 -10 -15 3 -15 19 0 31 16 18 24 -5 3 -14 -1 -21
-9z"/>
<path d="M1695 441 c-3 -6 3 -15 14 -21 24 -13 71 -55 71 -64 0 -12 -21 -6
-42 14 -24 22 -38 26 -38 9 0 -5 -5 -7 -11 -4 -6 4 -8 10 -5 13 7 6 -94 43
-103 38 -3 -2 -27 -1 -53 3 -37 6 -49 4 -61 -9 -12 -15 -10 -16 29 -15 24 1
41 -1 39 -5 -3 -5 2 -11 11 -14 23 -9 24 -8 17 11 -5 12 1 11 24 -6 25 -19 34
-21 52 -12 24 13 41 7 41 -13 0 -10 -14 -13 -50 -10 -32 2 -49 0 -45 -6 3 -6
-1 -10 -9 -10 -19 0 -21 -11 -4 -28 21 -21 2 -22 -21 -1 -12 11 -32 19 -44 17
-12 -1 -28 1 -34 5 -8 5 -13 4 -13 -2 0 -6 -7 -11 -16 -11 -13 0 -14 -3 -5
-13 6 -8 10 -30 9 -50 -1 -38 24 -87 45 -87 7 0 36 -16 64 -35 60 -40 65 -42
56 -18 -6 17 -5 16 15 0 11 -11 26 -16 32 -12 14 8 72 -4 65 -14 -2 -5 4 -16
15 -26 15 -14 31 -16 75 -12 32 3 58 1 61 -5 4 -5 19 -8 35 -6 22 4 26 2 18
-8 -23 -27 4 -33 153 -33 l152 -1 -33 34 -33 34 -82 -3 c-74 -4 -96 -8 -131
-22 -5 -3 -2 2 8 10 11 9 15 22 11 33 -5 15 -4 16 4 4 9 -12 15 -12 46 3 39
18 49 47 17 47 -11 0 -22 4 -25 8 -7 12 -69 2 -79 -12 -6 -8 -10 -7 -14 2 -7
18 -57 16 -49 -3 3 -8 0 -15 -7 -15 -7 0 -25 -7 -42 -16 -16 -8 -26 -12 -22
-8 4 4 -1 13 -11 20 -15 12 -14 13 11 14 33 0 36 17 5 23 l-23 4 23 2 c20 1
27 11 23 34 -1 5 3 6 9 2 5 -3 10 -13 10 -20 0 -16 64 -17 88 -1 7 4 29 8 48
9 21 1 34 6 34 14 0 7 -6 13 -12 13 -7 0 -23 18 -35 40 -12 22 -17 40 -11 40
7 0 6 5 -1 14 -7 8 -8 15 -2 18 6 2 5 9 -2 19 -14 19 -93 37 -82 19 4 -7 -4
-4 -19 5 -32 21 -33 28 -3 20 17 -4 16 -2 -6 10 -16 9 -43 15 -60 13 -22 -2
-32 1 -32 11 0 8 -9 17 -20 22 -27 11 -33 10 -40 0z m125 -45 c0 -9 -40 -13
-46 -5 -3 5 6 9 20 9 14 0 26 -2 26 -4z m-70 -82 c0 -20 -7 -17 -20 6 -9 16
-8 18 5 14 8 -4 15 -12 15 -20z m158 17 c11 -7 10 -9 -3 -14 -9 -4 -14 -3 -10
2 3 5 -1 12 -7 14 -7 3 -8 6 -3 6 6 0 16 -3 23 -8z m-108 -36 c16 -9 19 -14 9
-15 -8 0 -24 7 -35 15 -24 18 -7 19 26 0z m145 -35 l20 -9 -20 1 c-11 0 -31 4
-45 8 l-25 8 25 0 c14 0 34 -3 45 -8z m-120 -50 c-3 -5 -11 -10 -16 -10 -6 0
-7 5 -4 10 3 6 11 10 16 10 6 0 7 -4 4 -10z m-50 -50 c3 -5 -1 -10 -10 -10 -9
0 -13 5 -10 10 3 6 8 10 10 10 2 0 7 -4 10 -10z"/>
<path d="M830 416 c0 -2 7 -6 15 -10 8 -3 15 -1 15 4 0 6 -7 10 -15 10 -8 0
-15 -2 -15 -4z"/>
<path d="M1865 410 c-3 -6 1 -7 9 -4 18 7 21 14 7 14 -6 0 -13 -4 -16 -10z"/>
<path d="M1180 400 c0 -5 7 -10 15 -10 8 0 15 5 15 10 0 6 -7 10 -15 10 -8 0
-15 -4 -15 -10z"/>
<path d="M1268 383 c7 -3 16 -2 19 1 4 3 -2 6 -13 5 -11 0 -14 -3 -6 -6z"/>
<path d="M1325 381 c-2 -5 9 -11 26 -15 45 -9 69 -7 69 4 0 5 -7 7 -15 4 -8
-3 -28 -1 -45 4 -16 6 -32 7 -35 3z"/>
<path d="M1444 379 c-3 -6 -1 -16 5 -22 9 -9 14 -9 20 1 6 10 14 10 35 2 34
-13 36 -13 36 2 0 6 -3 8 -7 5 -3 -4 -11 -3 -17 2 -20 15 -64 22 -72 10z"/>
<path d="M2175 370 c-3 -5 -2 -10 4 -10 5 0 13 5 16 10 3 6 2 10 -4 10 -5 0
-13 -4 -16 -10z"/>
<path d="M875 360 c-4 -6 7 -10 25 -10 18 0 29 4 25 10 -3 6 -15 10 -25 10
-10 0 -22 -4 -25 -10z"/>
<path d="M1190 356 c0 -2 7 -6 15 -10 8 -3 15 -1 15 4 0 6 -7 10 -15 10 -8 0
-15 -2 -15 -4z"/>
<path d="M1286 339 c-14 -17 -14 -19 11 -25 17 -5 28 -3 31 4 2 7 10 12 18 12
23 0 7 17 -20 22 -16 3 -30 -2 -40 -13z"/>
<path d="M1105 330 c-3 -5 1 -10 10 -10 9 0 13 5 10 10 -3 6 -8 10 -10 10 -2
0 -7 -4 -10 -10z"/>
<path d="M1160 331 c0 -5 7 -12 16 -15 22 -9 24 -8 18 9 -7 16 -34 21 -34 6z"/>
<path d="M1225 320 c-3 -5 -1 -10 4 -10 6 0 11 5 11 10 0 6 -2 10 -4 10 -3 0
-8 -4 -11 -10z"/>
<path d="M165 310 c3 -5 15 -10 26 -10 11 0 17 5 14 10 -3 6 -15 10 -26 10
-11 0 -17 -4 -14 -10z"/>
<path d="M15 300 c-3 -5 -1 -10 4 -10 6 0 11 5 11 10 0 6 -2 10 -4 10 -3 0 -8
-4 -11 -10z"/>
<path d="M938 303 c7 -3 16 -2 19 1 4 3 -2 6 -13 5 -11 0 -14 -3 -6 -6z"/>
<path d="M1230 289 c0 -7 -9 -9 -21 -6 -16 4 -18 3 -8 -9 16 -19 39 -18 40 4
0 10 3 12 6 5 5 -15 43 -18 43 -4 0 10 -24 21 -46 21 -8 0 -14 -5 -14 -11z"/>
<path d="M1330 290 c-12 -8 -11 -10 8 -10 12 0 22 5 22 10 0 13 -11 13 -30 0z"/>
<path d="M950 270 c0 -5 7 -7 15 -4 8 4 15 8 15 10 0 2 -7 4 -15 4 -8 0 -15
-4 -15 -10z"/>
<path d="M1370 270 c0 -5 12 -10 26 -10 14 0 23 4 19 10 -3 6 -15 10 -26 10
-10 0 -19 -4 -19 -10z"/>
<path d="M1062 258 c2 -6 34 -20 71 -32 37 -11 67 -24 67 -28 0 -11 -24 -10
-35 1 -6 5 -32 11 -58 14 -40 4 -48 2 -46 -12 3 -30 -1 -37 -20 -37 -11 0 -17
4 -15 8 3 4 0 8 -7 8 -7 0 -9 -10 -7 -24 3 -16 1 -23 -8 -19 -6 2 -15 0 -19
-6 -8 -14 -25 -14 -25 0 0 5 4 8 9 4 5 -3 12 -1 15 4 3 5 -5 11 -19 13 -14 3
-25 1 -25 -3 0 -5 -6 -9 -13 -9 -7 0 -24 -11 -38 -23 -19 -18 -30 -22 -47 -16
-14 5 -21 5 -17 0 3 -5 19 -12 35 -16 17 -4 27 -11 24 -17 -8 -12 -52 -2 -71
17 -19 19 -34 19 -27 0 4 -8 1 -15 -5 -15 -6 0 -11 5 -11 12 0 9 -3 9 -12 0
-7 -7 -20 -12 -30 -12 -10 0 -18 -4 -18 -9 0 -4 -12 -6 -27 -3 -21 4 -25 2
-20 -12 6 -14 1 -16 -28 -14 -37 2 -51 -5 -41 -21 8 -13 1266 -14 1266 -1 0
14 -22 18 -95 14 -64 -4 -68 -2 -25 12 23 8 -8 24 -48 24 -20 0 -35 6 -38 15
-4 8 -16 15 -28 15 -11 1 -32 7 -46 15 -37 21 -91 19 -97 -3 -4 -19 -28 -22
-51 -8 -6 4 -17 4 -23 1 -5 -4 -18 0 -27 8 -9 8 -29 17 -44 21 -16 3 -28 10
-28 15 0 4 12 6 28 4 17 -3 22 -1 15 4 -16 11 16 42 37 35 9 -3 11 1 7 12 -4
11 -1 16 10 16 12 0 13 3 3 15 -7 8 -16 13 -20 10 -5 -3 -16 5 -24 17 -15 21
-19 21 -62 10 -25 -7 -50 -10 -55 -7 -14 9 -11 -7 6 -25 17 -19 10 -50 -11
-50 -8 0 -14 7 -14 15 0 8 -4 15 -9 15 -5 0 -8 8 -7 17 0 10 -7 19 -19 21 -11
2 -27 6 -35 9 -28 12 -102 13 -98 1z m114 -89 c35 -26 25 -39 -13 -16 -20 11
-34 16 -30 10 12 -18 -6 -23 -28 -7 -16 12 -17 16 -6 23 19 12 54 7 77 -10z
m94 -19 c0 -5 -4 -10 -10 -10 -5 0 -10 5 -10 10 0 6 5 10 10 10 6 0 10 -4 10
-10z m226 -104 c10 -21 9 -25 -10 -30 -24 -6 -66 18 -66 39 0 10 10 15 33 15
24 0 35 -6 43 -24z m44 -6 c0 -5 -2 -10 -4 -10 -3 0 -8 5 -11 10 -3 6 -1 10 4
10 6 0 11 -4 11 -10z m-662 -11 c-5 -14 -21 -14 -26 0 -2 6 4 11 13 11 9 0 15
-5 13 -11z m779 5 c-3 -3 -12 -4 -19 -1 -8 3 -5 6 6 6 11 1 17 -2 13 -5z"/>
<path d="M1458 33 c7 -3 16 -2 19 1 4 3 -2 6 -13 5 -11 0 -14 -3 -6 -6z"/>
<path d="M765 250 c-3 -5 -1 -10 4 -10 6 0 11 5 11 10 0 6 -2 10 -4 10 -3 0
-8 -4 -11 -10z"/>
<path d="M888 237 c-37 -14 -35 -21 8 -42 33 -15 62 -13 38 3 -17 11 -24 40
-11 46 7 2 8 4 2 4 -5 0 -22 -5 -37 -11z"/>
<path d="M940 225 c0 -8 4 -15 9 -15 5 0 11 7 15 15 3 9 0 15 -9 15 -8 0 -15
-7 -15 -15z"/>
<path d="M575 220 c-8 -13 8 -18 29 -10 19 6 19 7 -2 12 -12 4 -24 2 -27 -2z"/>
<path d="M985 210 c3 -5 8 -10 11 -10 2 0 4 5 4 10 0 6 -5 10 -11 10 -5 0 -7
-4 -4 -10z"/>
<path d="M719 193 c0 -5 -2 -18 -5 -30 -3 -18 1 -23 16 -23 16 0 19 4 12 18
-5 9 -7 23 -5 30 3 6 0 12 -6 12 -6 0 -11 -3 -12 -7z"/>
<path d="M240 176 c0 -2 7 -6 15 -10 8 -3 15 -1 15 4 0 6 -7 10 -15 10 -8 0
-15 -2 -15 -4z"/>
<path d="M769 163 c-13 -16 -12 -17 3 -5 12 10 17 10 20 1 3 -8 12 -9 28 -4
24 8 24 8 5 16 -31 12 -41 10 -56 -8z"/>
<path d="M301 167 c2 -1 13 -9 24 -17 19 -14 19 -14 6 3 -7 9 -18 17 -24 17
-6 0 -8 -1 -6 -3z"/>
<path d="M500 155 c0 -2 12 -12 28 -20 15 -9 19 -14 10 -11 -18 5 -25 -8 -10
-18 11 -7 76 33 68 42 -4 3 -11 0 -16 -7 -7 -12 -12 -12 -34 2 -24 16 -46 22
-46 12z"/>
<path d="M1376 152 c-3 -5 1 -18 9 -29 10 -14 23 -19 51 -17 49 4 54 11 24 34
-26 20 -75 27 -84 12z"/>
<path d="M856 142 c-2 -4 7 -9 20 -10 15 -1 22 2 19 8 -7 12 -32 13 -39 2z"/>
<path d="M635 130 c3 -5 8 -10 11 -10 2 0 4 5 4 10 0 6 -5 10 -11 10 -5 0 -7
-4 -4 -10z"/>
<path d="M298 113 c7 -3 16 -2 19 1 4 3 -2 6 -13 5 -11 0 -14 -3 -6 -6z"/>
<path d="M248 93 c6 -2 18 -2 25 0 6 3 1 5 -13 5 -14 0 -19 -2 -12 -5z"/>
<path d="M452 83 c2 -10 13 -19 26 -21 12 -2 19 -8 16 -14 -4 -6 1 -8 11 -6
32 6 29 28 -4 34 -17 4 -31 10 -31 15 0 5 -5 9 -11 9 -6 0 -9 -8 -7 -17z"/>
<path d="M560 70 c0 -5 5 -10 10 -10 6 0 10 5 10 10 0 6 -4 10 -10 10 -5 0
-10 -4 -10 -10z"/>
<path d="M393 63 c-7 -2 -9 -11 -6 -19 6 -17 7 -17 -36 -4 -28 8 -43 6 -80
-11 -29 -14 -41 -23 -31 -27 7 -3 16 0 17 5 2 6 13 9 23 6 11 -3 20 -1 20 5 0
6 14 10 30 10 35 -1 40 -15 8 -21 -13 -2 -5 -2 17 0 22 2 48 4 58 4 9 0 17 4
17 10 0 5 -7 9 -15 9 -18 0 -20 17 -3 22 7 3 8 7 3 10 -6 3 -15 3 -22 1z"/>
<path d="M23 34 c-14 -30 6 -33 31 -5 16 17 16 19 -2 23 -12 3 -22 -3 -29 -18z"/>
</g>
</svg>
